:SAMPLES-PER-SECOND 30
:FULLY-SPECIFIED
:DEGREES
633
root  40.1872 38.4157 0.978352 63.037 84.1075 68.6292
RightUpLeg  -20.8641 5.19529 -8.36429
RightLeg  20.1289 4.85462 1.52325
RightFoot  -0.958752 -0.813345 8.86306
RightToes  3.49245e-010 0 -3.6325e-017
Spine  6.25291 -0.805507 -6.19514
Spine1  5.74608 -0.997037 -0.987393
HEad  -14.569 2.62413 -2.11025
LeftShoulder1  -0.610995 5.059 -33.1361
LeftArm  4.09587 1.43904 -39.4435
LeftForeArm  22.9806 -40.5993 -8.10842
LeftHand  -0.0610024 4.64109 6.44706
RightShoulder  -1.00452 -6.21634 30.4707
RightArm  15.4104 -12.2787 41.5926
RightForeArm  22.4693 8.0527 7.10161
RightHand  -0.040436 4.61369 -0.740788
LeftUpLeg  4.56979 4.51849 -9.18122
LeftLeg  15.9484 0.0694163 -0.396862
LeftFoot  -14.0928 0.267425 7.59831
LeftToes  -5.6298e-010 8.41567e-011 -1.83319e-011
634
root  41.3809 38.3478 0.945454 67.1729 83.9052 72.434
RightUpLeg  -19.7956 0.119786 -6.98412
RightLeg  8.10263 9.8152 0.125568
RightFoot  -1.23248 -0.837252 9.34452
RightToes  3.49245e-010 0 -3.6325e-017
Spine  4.50723 -0.73878 -5.56402
Spine1  7.55464 -0.724244 -1.01203
HEad  -15.5941 1.93023 -2.09484
LeftShoulder1  -0.555426 4.91338 -33.2151
LeftArm  4.43559 0.835553 -39.7407
LeftForeArm  23.0436 -40.2855 -8.00902
LeftHand  -0.0869823 4.10965 6.37331
RightShoulder  -0.99559 -6.19419 30.4412
RightArm  13.8956 -11.1368 42.0369
RightForeArm  23.3116 6.65063 6.71826
RightHand  0.0108724 3.54896 -0.114775
LeftUpLeg  7.05306 4.46176 -9.51415
LeftLeg  14.272 -0.261229 -0.523569
LeftFoot  -15.0637 0.339934 7.65403
LeftToes  -5.6298e-010 8.41567e-011 -1.83319e-011
635
root  42.6046 38.2205 0.926462 71.7783 83.994 76.6625
RightUpLeg  -19.032 -5.99993 -4.69818
RightLeg  -1.2914 14.7861 -1.75687
RightFoot  -2.32294 -0.804508 10.0229
RightToes  3.49245e-010 0 -3.6325e-017
Spine  2.09336 -0.664539 -4.3109
Spine1  10.27 -0.373128 -1.43736
HEad  -17.3384 0.886509 -2.30876
LeftShoulder1  -0.415979 4.57062 -32.8468
LeftArm  5.14949 0.327377 -40.5186
LeftForeArm  22.8371 -39.1206 -7.66832
LeftHand  -0.0710932 4.33064 5.6895
RightShoulder  -1.00117 -6.22192 30.2737
RightArm  12.4113 -9.98436 42.8617
RightForeArm  22.233 6.12047 6.26295
RightHand  -0.058521 3.69526 -1.00594
LeftUpLeg  9.24585 4.45265 -9.55342
LeftLeg  13.2699 -0.785326 -0.510652
LeftFoot  -16.1652 0.430988 7.89997
LeftToes  -5.6298e-010 8.41567e-011 -1.83319e-011
636
root  43.882 37.9193 0.971997 74.4308 83.7151 78.9132
RightUpLeg  -19.915 -6.11573 -4.83414
RightLeg  -2.56425 11.361 -1.16425
RightFoot  -4.38111 -0.648973 10.205
RightToes  3.49245e-010 0 -3.6325e-017
Spine  3.59909 -0.583441 -4.21756
Spine1  7.4519 -0.38533 -1.14145
HEad  -15.5393 1.12553 -2.47368
LeftShoulder1  -0.584705 4.97175 -33.6553
LeftArm  6.84141 1.4032 -39.7563
LeftForeArm  23.1894 -37.4363 -7.15638
LeftHand  -0.0411991 4.87529 4.64138
RightShoulder  -0.99447 -6.21806 30.0804
RightArm  12.6722 -9.93322 42.5712
RightForeArm  21.4162 6.74471 6.34178
RightHand  -0.0883852 4.05876 -1.35339
LeftUpLeg  10.7871 4.39409 -9.87776
LeftLeg  13.7832 -0.792191 -0.34367
LeftFoot  -18.3318 0.59284 7.89841
LeftToes  -5.6298e-010 8.41567e-011 -1.83319e-011
637
root  45.2392 37.6194 1.01475 73.5391 84.5392 78.7915
RightUpLeg  -20.2995 -5.15595 -3.90287
RightLeg  2.68972 5.75992 -0.425547
RightFoot  -2.74481 -0.578135 7.27838
RightToes  3.49245e-010 0 -3.6325e-017
Spine  4.80073 -0.786761 -2.34303
Spine1  6.87284 -0.48686 -1.73719
HEad  -15.4197 1.75913 -2.68088
LeftShoulder1  -0.719162 5.2993 -33.8772
LeftArm  8.1712 2.49505 -39.815
LeftForeArm  22.2755 -34.5141 -6.42189
LeftHand  -0.0142105 5.65301 4.99907
RightShoulder  -0.942539 -6.05659 30.3398
RightArm  13.2539 -8.64934 42.5409
RightForeArm  20.8342 7.33722 6.59065
RightHand  -0.112895 4.49641 -1.6107
LeftUpLeg  13.7375 4.7549 -8.83271
LeftLeg  14.4447 -1.27338 -0.0597887
LeftFoot  -20.7219 0.740656 7.49512
LeftToes  -5.6298e-010 8.41567e-011 -1.83319e-011
638
root  46.6771 37.372 1.09136 78.1882 85.5428 83.4814
RightUpLeg  -21.1436 -4.43363 -2.89512
RightLeg  8.53076 2.70727 -0.0337586
RightFoot  0.114989 -0.346496 4.00817
RightToes  3.49245e-010 0 -3.6325e-017
Spine  3.7145 -1.02971 -0.49868
Spine1  8.14255 -0.689715 -1.84802
HEad  -15.6945 2.05992 -2.80924
LeftShoulder1  -0.661543 5.16896 -33.5258
LeftArm  10.4062 3.55897 -40.8013
LeftForeArm  20.0711 -29.6308 -5.25179
LeftHand  -0.0299401 5.22233 5.1062
RightShoulder  -0.943169 -6.05972 30.3202
RightArm  13.848 -7.18392 42.9115
RightForeArm  20.6738 8.41682 6.72479
RightHand  -0.0779633 4.28678 -1.21672
LeftUpLeg  15.9553 4.24218 -7.71392
LeftLeg  15.1505 -1.53116 0.114142
LeftFoot  -22.36 0.776536 6.63296
LeftToes  -5.6298e-010 8.41567e-011 -1.83319e-011
